<?xml version="1.0" standalone="no"?><!DOCTYPE svg PUBLIC "-//W3C//DTD SVG 1.1//EN" "http://www.w3.org/Graphics/SVG/1.1/DTD/svg11.dtd"><svg t="1553070560875" class="icon" style="" viewBox="0 0 1024 1024" version="1.1" xmlns="http://www.w3.org/2000/svg" p-id="960" xmlns:xlink="http://www.w3.org/1999/xlink" width="32" height="32"><defs><style type="text/css"></style></defs><path d="M267.906 537.159l0 301.379c0.187 11.409 7.559 18.642 13.542 22.132 6.307 3.606 13.17 5.183 20.406 5.183l136.62 0.047c4.684 0 9.322-1.995 12.614-5.228 3.385-3.352 5.241-7.988 5.241-12.661l0-145.027 136.11 0.047 0 144.979c0 4.672 1.9 9.31 5.24 12.661 3.34 3.234 7.929 5.182 12.66 5.182l136.528 0c7.327 0 14.145-1.577 20.451-5.182 6.028-3.49 13.357-10.724 13.588-22.132l0-301.379-256.546-234.656-256.453 234.656zM761.242 344.795l0-170.15c0-10.296-8.394-18.712-18.782-18.712l-45.171 0c-10.342 0-18.642 8.417-18.642 18.712l0 94.606-121.826-111.415c-18.411-16.857-46.467-16.857-64.878 0l-323.788 296.254c-19.569 17.842-20.916 48.276-3.015 67.892 9.46 10.342 22.446 15.629 35.476 15.629 11.64 0 23.234-4.128 32.463-12.614l291.28-266.528 291.373 266.528c19.569 17.947 50.039 16.614 67.94-3.015 17.9-19.616 16.508-50.05-3.06-67.892l-119.369-109.294zM267.906 537.159l0 301.379c0.187 11.409 7.559 18.642 13.542 22.132 6.307 3.606 13.17 5.183 20.406 5.183l136.62 0.047c4.684 0 9.322-1.995 12.614-5.228 3.385-3.352 5.241-7.988 5.241-12.661l0-145.027 136.11 0.047 0 144.979c0 4.672 1.9 9.31 5.24 12.661 3.34 3.234 7.929 5.182 12.66 5.182l136.528 0c7.327 0 14.145-1.577 20.451-5.182 6.028-3.49 13.357-10.724 13.588-22.132l0-301.379-256.546-234.656-256.453 234.656zM761.242 344.795l0-170.15c0-10.296-8.394-18.712-18.782-18.712l-45.171 0c-10.342 0-18.642 8.417-18.642 18.712l0 94.606-121.826-111.415c-18.411-16.857-46.467-16.857-64.878 0l-323.788 296.254c-19.569 17.842-20.916 48.276-3.015 67.892 9.46 10.342 22.446 15.629 35.476 15.629 11.64 0 23.234-4.128 32.463-12.614l291.28-266.528 291.373 266.528c19.569 17.947 50.039 16.614 67.94-3.015 17.9-19.616 16.508-50.05-3.06-67.892l-119.369-109.294z" fill="#3498EC" p-id="961"></path></svg>