<?xml version="1.0" standalone="no"?><!DOCTYPE svg PUBLIC "-//W3C//DTD SVG 1.1//EN" "http://www.w3.org/Graphics/SVG/1.1/DTD/svg11.dtd"><svg t="1553070677517" class="icon" style="" viewBox="0 0 1024 1024" version="1.1" xmlns="http://www.w3.org/2000/svg" p-id="1458" xmlns:xlink="http://www.w3.org/1999/xlink" width="32" height="32"><defs><style type="text/css"></style></defs><path d="M512 992c-264.704 0-480-215.296-480-480S247.296 32 512 32s480 215.296 480 480S776.704 992 512 992zM512 96C282.624 96 96 282.624 96 512s186.624 416 416 416 416-186.624 416-416S741.376 96 512 96z" fill="#3498EC" p-id="1459"></path><path d="M512 608c-97.088 0-176-78.912-176-176S414.912 256 512 256s176 78.912 176 176S609.088 608 512 608zM512 320C450.24 320 400 370.24 400 432S450.24 544 512 544s112-50.24 112-112S573.76 320 512 320z" fill="#3498EC" p-id="1460"></path><path d="M801.088 886.592c-11.968 0-23.36-6.72-28.864-18.24C724.608 768.512 622.528 704 512 704c-110.4 0-212.48 64.448-260.032 164.096C244.352 884.032 225.216 890.88 209.28 883.2c-16-7.616-22.72-26.688-15.104-42.688C252.352 718.656 377.088 640 512 640c134.976 0 259.84 78.784 317.952 200.832 7.616 15.936 0.896 35.072-15.104 42.624C810.368 885.568 805.696 886.592 801.088 886.592z" fill="#3498EC" p-id="1461"></path></svg>