<?xml version="1.0" standalone="no"?><!DOCTYPE svg PUBLIC "-//W3C//DTD SVG 1.1//EN" "http://www.w3.org/Graphics/SVG/1.1/DTD/svg11.dtd"><svg t="1553070663733" class="icon" style="" viewBox="0 0 1024 1024" version="1.1" xmlns="http://www.w3.org/2000/svg" p-id="1084" xmlns:xlink="http://www.w3.org/1999/xlink" width="32" height="32"><defs><style type="text/css"></style></defs><path d="M147.88927316 862.13481868h297.04649946v44.33605731H147.88927316zM555.77212883 862.13481868h325.86098707v44.33605731H555.77212883zM402.81105202 800.06693566L216.60631996 613.86112137 624.48268142 205.98259542 810.68741348 392.18949196zM830.65222377 374.45117205l-186.20473206-186.20473205 55.41871923-55.41655398 186.20364904 186.20473128z" fill="#3498EC" p-id="1085"></path><path d="M123.50611917 893.16930092l261.57635463-73.15487389-186.20581429-186.20473128z" fill="#3498EC" p-id="1086"></path><path d="M770.7967597 130.60772459l115.2709358 115.27093659c19.95290333 19.94857438 17.73290794 50.98305662-2.21566644 70.93487771-19.95290333 19.94857438-53.20197054 22.16856978-70.93487848 2.21566644L697.64621477 203.75826952C677.69331144 186.02536158 677.69331144 152.77629514 699.86079897 132.82339104c19.94857438-19.95290333 50.98738634-22.16748754 70.93596074-2.21566645" fill="#3498EC" p-id="1087"></path></svg>