<?xml version="1.0" standalone="no"?><!DOCTYPE svg PUBLIC "-//W3C//DTD SVG 1.1//EN" "http://www.w3.org/Graphics/SVG/1.1/DTD/svg11.dtd"><svg t="1553070673340" class="icon" style="" viewBox="0 0 1024 1024" version="1.1" xmlns="http://www.w3.org/2000/svg" p-id="1334" xmlns:xlink="http://www.w3.org/1999/xlink" width="32" height="32"><defs><style type="text/css"></style></defs><path d="M248.54394969 142.32497937c4.18275562 3.19462781 11.88631687 9.948435 23.39848875 23.38889532 13.1142825 15.30159469 27.82108125 35.33277375 42.595035 57.95419125 29.90286563 45.82803656 47.6795775 82.99316438 51.8047725 95.41671656-0.9593475 6.83055562-5.01738844 13.93932094-11.95347188 25.62417562-10.87900219 18.30435281-25.76807812 43.38170063-25.76807812 78.32114157 0 12.84566531 0 51.92948813 104.31946312 157.95658969 25.70092313 26.12303625 52.18851188 50.183475 74.57968594 67.75872375 34.01846719 26.68905188 56.53435688 37.5776475 77.70715875 37.5776475 30.00839438 0 54.87468562-13.28696531 74.82911625-23.98369125 14.1503775-7.56925312 26.47799531-14.15997094 37.05959906-14.89866844 10.04436937 2.81088844 44.39860875 19.43638312 97.92061407 57.76232156 21.7388175 15.56061844 42.69097031 32.00383781 58.98069281 46.27893 12.64420219 11.08046531 19.99280531 18.64971844 24.07003219 23.25458719-3.23300156 23.91653719-16.71183562 48.60055125-38.08610157 69.1881525-22.78450688 21.94028062-52.04460938 36.11943844-74.54131218 36.11943844-52.33241437 0-118.11488156-22.74613219-190.22904469-65.77287469-69.57189094-41.51097281-142.08897938-99.96402469-209.70380156-169.037055C299.11116406 577.34116813 242.53843344 504.58424281 201.919655 434.79170188c-20.32857656-34.9298475-35.98513031-68.11368281-46.54754812-98.52500344-10.33217438-29.73977719-15.57021187-56.26573969-15.57021188-78.75284813 0-9.10420875 3.83739094-20.46288562 11.07087188-32.85765656 7.99136625-13.68029719 19.80093563-27.98417063 34.14318281-41.36707031a224.25 224.25 0 0 1 42.89243344-31.73521969A106.55625 106.55625 0 0 1 248.54394969 142.32497937m4.63364906-50.25062999c-47.43974062 0-161.27593219 86.38925531-161.27593219 165.47787468 0 231.20278219 415.05216469 671.64887906 673.5771675 671.64887906 71.15481469 0 161.28552562-76.65187687 161.28552563-165.47787468 0-30.41132062-185.00059969-165.47787469-227.69157-165.47787469-43.87096781 0-75.8939925 38.93032781-113.83619156 38.93032781S376.50173844 465.56757406 376.50173844 422.9821325s37.94219906-63.26897719 37.94219906-107.07279094c0-31.65847219-113.83619156-223.88295938-161.27593219-223.88295937l0 0Z" fill="#3498EC" p-id="1335"></path></svg>